<svg preserveAspectRatio="none" width="3" height="6" viewBox="0 0 3 6" fill="none" xmlns="http://www.w3.org/2000/svg">
<path vector-effect="non-scaling-stroke" d="M2.45028 0.964569C2.3818 1.10153 2.31512 1.23505 2.24487 1.36917C2.20438 1.44646 2.21093 1.54368 2.16862 1.62127C2.12388 1.70329 2.06189 1.7262 2.05813 1.83913C2.05582 1.90845 2.05813 1.97827 2.05813 2.04765C2.05813 2.40523 2.08984 2.76889 1.91963 3.08094C1.87766 3.15789 1.87023 3.26794 1.84649 3.35171C1.82526 3.42666 1.75807 3.50591 1.75001 3.57579C1.73727 3.68626 1.612 3.85553 1.5695 3.96483C1.52806 4.07138 1.54269 4.08655 1.4699 4.17647C1.39728 4.26619 1.31977 4.35969 1.25204 4.45346C1.17139 4.56514 1.1898 4.75343 1.1898 4.88608" stroke="white" stroke-linecap="round"/>
</svg>
