<svg preserveAspectRatio="none" width="4" height="4" viewBox="0 0 4 4" fill="none" xmlns="http://www.w3.org/2000/svg">
<path vector-effect="non-scaling-stroke" d="M2.55532 0.708061C2.55346 0.751771 2.53576 0.794482 2.52631 0.837022C2.52128 0.859642 2.51814 0.883344 2.51019 0.905187C2.50391 0.922418 2.49305 0.937523 2.48992 0.95585C2.48639 0.97652 2.47612 0.991816 2.4715 1.01158C2.46708 1.03047 2.46883 1.04948 2.46735 1.06869C2.46098 1.15149 2.46413 1.23523 2.46413 1.31832C2.46413 1.33618 2.46656 1.35647 2.46321 1.37405C2.45868 1.39784 2.44723 1.41727 2.43926 1.43991C2.42328 1.48533 2.37961 1.52389 2.36971 1.57118C2.3539 1.64672 2.32242 1.71947 2.28819 1.78995C2.26622 1.83518 2.25685 1.88796 2.232 1.9318C2.20122 1.98613 2.17737 2.05267 2.1309 2.09669C2.10804 2.11835 2.09595 2.15539 2.07564 2.17959C2.05734 2.20139 2.03387 2.21793 2.01507 2.23924C2.00721 2.24815 2.00216 2.2592 1.99411 2.26848C1.98667 2.27708 1.98447 2.29046 1.98352 2.30141C1.98232 2.31526 1.97541 2.31984 1.97155 2.33273C1.9621 2.36424 1.9643 2.39273 1.94437 2.42185C1.92912 2.44414 1.91787 2.47564 1.89832 2.49416C1.87294 2.5182 1.86419 2.5566 1.83913 2.58305C1.8223 2.60082 1.81781 2.62664 1.80298 2.64615C1.78365 2.67158 1.77542 2.70193 1.75508 2.72721C1.72312 2.76692 1.68661 2.80776 1.64661 2.83959C1.63801 2.84644 1.6202 2.86769 1.60815 2.86769C1.5836 2.86769 1.56515 2.8098 1.55841 2.79261C1.5428 2.75277 1.53833 2.71005 1.53147 2.66803C1.52843 2.64941 1.51262 2.61296 1.52963 2.59595C1.55088 2.5747 1.56618 2.55007 1.58559 2.52825C1.60339 2.50822 1.62943 2.49811 1.64592 2.47781C1.66578 2.45337 1.67219 2.42827 1.68645 2.39975C1.6945 2.38365 1.69395 2.36546 1.70165 2.34908C1.71015 2.33101 1.72254 2.30888 1.72629 2.28921C1.72955 2.2721 1.74 2.24732 1.74886 2.23256C1.76442 2.20662 1.78228 2.18184 1.79584 2.15472C1.80144 2.14352 1.79908 2.13236 1.80183 2.12064C1.80532 2.1057 1.81517 2.09269 1.81933 2.07735C1.83668 2.01337 1.87704 1.95978 1.89532 1.8968C1.9025 1.87207 1.91744 1.85276 1.92434 1.82633C1.92875 1.80942 1.94092 1.79758 1.94506 1.78028C1.94763 1.76953 1.95142 1.75664 1.95612 1.74665C1.96658 1.72443 1.96545 1.6981 1.96993 1.67388C1.97367 1.65373 1.98094 1.63376 1.98652 1.61401C1.99242 1.59309 1.99258 1.57155 1.99803 1.55045C2.00409 1.52695 2.00137 1.50193 2.00494 1.47814C2.00791 1.45835 2.01684 1.42348 2.02889 1.40767C2.0511 1.37852 2.05132 1.32481 2.06435 1.29069C2.0778 1.25548 2.08024 1.21693 2.09429 1.18153C2.10232 1.1613 2.10348 1.13996 2.11179 1.11981C2.11932 1.10156 2.13041 1.07478 2.12837 1.05441C2.12822 1.05289 2.09945 1.09632 2.09383 1.10508C2.08585 1.11751 2.08337 1.13245 2.07679 1.14561C2.0698 1.15959 2.05962 1.17163 2.05192 1.18521C2.03063 1.22276 2.01139 1.26425 1.98605 1.29898C1.97428 1.31511 1.96064 1.33905 1.95819 1.35862C1.95546 1.38048 1.95286 1.40356 1.94967 1.42586C1.94312 1.47172 1.91697 1.51487 1.91697 1.56219C1.91697 1.59228 1.91697 1.62238 1.91697 1.65247C1.91697 1.67538 1.90756 1.68842 1.9043 1.70958C1.9025 1.72127 1.89805 1.73238 1.89624 1.74412C1.89353 1.76173 1.87883 1.77366 1.87344 1.79041C1.86939 1.80301 1.87073 1.82112 1.86285 1.83163C1.85487 1.84227 1.85244 1.85197 1.84857 1.86433C1.83867 1.89602 1.83453 1.93073 1.82025 1.96059C1.80429 1.99397 1.78158 2.0212 1.77189 2.05754C1.76792 2.07241 1.76069 2.08094 1.7537 2.09439C1.74733 2.10663 1.74803 2.12057 1.74218 2.13284C1.73177 2.15471 1.71672 2.17255 1.71409 2.19755C1.71276 2.21015 1.70875 2.22016 1.70557 2.2321C1.69708 2.26392 1.68616 2.29574 1.67609 2.32721C1.66154 2.37267 1.63085 2.4124 1.62704 2.46192C1.62406 2.50066 1.62049 2.53941 1.61644 2.57822C1.61263 2.61485 1.59515 2.64452 1.58789 2.68C1.5845 2.69659 1.58169 2.71104 1.57108 2.72468C1.56253 2.73567 1.56121 2.75204 1.55219 2.76406C1.5221 2.80418 1.47962 2.82632 1.43958 2.85479C1.41955 2.86904 1.3955 2.88846 1.39053 2.91329" stroke="white" stroke-linecap="round"/>
</svg>
